<svg id="Layer_1" data-name="Layer 1" xmlns="http://www.w3.org/2000/svg" viewBox="0 0 195.83 82.15">
  <defs>
    <style>
      .cls-1 {
        fill: none;
      }

      .cls-2 {
        fill: #003479;
      }

      .cls-3 {
        fill: #e1ad40;
      }
    </style>
  </defs>
  <title>janssen_medical_cloud_rgb</title>
  <g id="Logo_and_Clear_Space" data-name="Logo and Clear Space">
    <rect id="Clear_Space" data-name="Clear Space" class="cls-1" width="195.83" height="82.15"/>
  </g>
  <g>
    <g id="Janssen">
      <path id="Janssen_Wordmark" data-name="Janssen Wordmark" class="cls-2" d="M30.63,41.37V39.85c1.49-.55,2.59-1.88,2.59-4.95V21.45h2.3v13.3C35.52,38.8,33.14,41.08,30.63,41.37ZM44,35.82c-3.66,0-5.36-1.6-5.36-4.16,0-3.74,3.51-4.84,7.87-5.29v-.86c0-2.17-1.31-2.8-3.11-2.8a7.88,7.88,0,0,0-3.4.89l-.55-1.36a9.29,9.29,0,0,1,4.32-1c2.62,0,4.92,1.13,4.92,4.58v9.06A9.89,9.89,0,0,1,44,35.82Zm2.51-8.27c-3.56.44-5.68,1.2-5.68,4.06,0,2,1.26,2.88,3.35,2.88A5.11,5.11,0,0,0,46.56,34Zm13.82,8V25.43c0-1.31-.55-2.75-3-2.75a5.89,5.89,0,0,0-2.67.5V35.56h-2.3V22.18a11.72,11.72,0,0,1,5.15-1c3.92,0,5.08,2.17,5.08,4.19V35.56Zm8.76.21a6.27,6.27,0,0,1-3.61-1l.63-1.52a4.43,4.43,0,0,0,2.75.84,2.45,2.45,0,0,0,2.62-2.43c0-1.46-.79-2.12-2.33-2.69-2.75-1-3.3-2.49-3.3-4a3.94,3.94,0,0,1,4.21-3.87,5.89,5.89,0,0,1,3.3,1l-.6,1.39a4,4,0,0,0-2.36-.78A2.16,2.16,0,0,0,68.09,25c0,1.36,1,2,2.35,2.54,2.75,1,3.43,2.51,3.43,4.14C73.87,33.78,72,35.76,69.14,35.76Zm10.31,0a6.27,6.27,0,0,1-3.61-1l.63-1.52a4.43,4.43,0,0,0,2.75.84,2.45,2.45,0,0,0,2.62-2.43c0-1.46-.79-2.12-2.33-2.69-2.75-1-3.3-2.49-3.3-4a3.94,3.94,0,0,1,4.21-3.87,5.89,5.89,0,0,1,3.3,1l-.6,1.39a4,4,0,0,0-2.35-.78A2.16,2.16,0,0,0,78.4,25c0,1.36,1,2,2.35,2.54,2.75,1,3.43,2.51,3.43,4.14C84.18,33.78,82.32,35.76,79.44,35.76Zm9.45-6.38c.26,3.19,1.75,4.76,4.29,4.76a7,7,0,0,0,3.48-.81l.6,1.52a8.57,8.57,0,0,1-4.27,1c-3.69,0-6.28-2.33-6.28-7.36,0-4.79,2.36-7.27,5.68-7.27s5.42,2.2,5.36,6.91Zm3.43-6.7c-2,0-3.56,1.65-3.5,5.47l6.75-1C95.56,23.94,94.33,22.68,92.32,22.68Zm16.54,12.88V25.43c0-1.31-.55-2.75-3-2.75a5.89,5.89,0,0,0-2.67.5V35.56h-2.3V22.18a11.72,11.72,0,0,1,5.15-1c3.92,0,5.08,2.17,5.08,4.19V35.56Z"/>
    </g>
    <g>
      <path class="cls-3" d="M38.8,60.73,34.55,46.81,32.19,60.73H30.63l2.76-15.46h2.16l4.22,13.82L44,45.27h2.16l2.76,15.46H47.28L44.91,46.81,40.67,60.73Z"/>
      <path class="cls-3" d="M52.38,55.14v.05a4.19,4.19,0,0,0,4.22,4.42,6,6,0,0,0,3.88-1.28V59.9A6.65,6.65,0,0,1,56.6,61a5.56,5.56,0,0,1-5.78-5.93c0-3.41,2.34-5.93,5.39-5.93,2.86,0,4.76,1.72,4.76,4.94v1.07Zm7-1.3c-.1-2.37-1.38-3.33-3.28-3.33a3.74,3.74,0,0,0-3.64,3.33Zm-4-6.45,2.21-4h1.54l-2.21,4Z"/>
      <path class="cls-3" d="M73.38,60.57a16.4,16.4,0,0,1-3.69.42c-3.93,0-6.58-2.13-6.58-5.93s2.86-5.93,6.25-5.93a5.51,5.51,0,0,1,2.47.52V43h1.56ZM71.82,51a5.3,5.3,0,0,0-2.47-.52,4.32,4.32,0,0,0-4.66,4.53c0,2.89,2,4.55,5,4.55a14.32,14.32,0,0,0,2.13-.13Z"/>
      <path class="cls-3" d="M76.9,45.85a1.18,1.18,0,0,1,1.17-1.17,1.17,1.17,0,0,1,1.17,1.17A1.18,1.18,0,0,1,78.07,47,1.2,1.2,0,0,1,76.9,45.85Zm2,14.89H77.29V49.38h1.56Z"/>
      <path class="cls-3" d="M91,51.62a5.67,5.67,0,0,0-3.17-1.07,4.5,4.5,0,0,0,.1,9,5.78,5.78,0,0,0,3.25-1.07v1.64A7.28,7.28,0,0,1,87.8,61a5.93,5.93,0,0,1,0-11.87A6.26,6.26,0,0,1,91,50Z"/>
      <path class="cls-3" d="M100.09,52.79a2.11,2.11,0,0,0-2.39-2.21,6.79,6.79,0,0,0-3.33.91V50a7.47,7.47,0,0,1,3.51-.89c2.29,0,3.77,1,3.77,3.57v7.83a12.91,12.91,0,0,1-3.23.42c-3.07,0-5.13-1-5.13-3.36,0-2.24,2.06-3.41,5.52-3.41h1.27Zm0,2.65H98.92c-2.34,0-4.06.63-4.06,2.13s1.56,2.06,3.64,2.06a8.88,8.88,0,0,0,1.59-.16Z"/>
      <path class="cls-3" d="M119.81,53.13a2.38,2.38,0,0,0-2.65-2.6,8.73,8.73,0,0,0-3.33.65,4.82,4.82,0,0,1,.34,1.87v7.68H112.6v-7.6a2.36,2.36,0,0,0-2.68-2.6,8.6,8.6,0,0,0-3,.52v9.68h-1.56V50.11a12.37,12.37,0,0,1,4.55-1,4.57,4.57,0,0,1,3,.89,12,12,0,0,1,4.19-.89c2.73,0,4.22,1.12,4.22,4v7.65h-1.56Z"/>
      <path class="cls-3" d="M125.85,55.14v.05a4.19,4.19,0,0,0,4.22,4.42,6,6,0,0,0,3.88-1.28V59.9A6.66,6.66,0,0,1,130.07,61a5.56,5.56,0,0,1-5.78-5.93c0-3.41,2.34-5.93,5.39-5.93,2.86,0,4.76,1.72,4.76,4.94v1.07Zm7-1.3c-.1-2.37-1.38-3.33-3.28-3.33A3.74,3.74,0,0,0,126,53.83Z"/>
      <path class="cls-3" d="M137.43,50a14.48,14.48,0,0,1,4.76-.86c2.86,0,4.61,1.12,4.61,4v7.65h-1.56V53.39c0-2.32-1.64-2.81-3.18-2.81A12.33,12.33,0,0,0,139,51v9.73h-1.56Z"/>
      <path class="cls-3" d="M149,49.38h1.74V46.63h1.56v2.76h3.2v1.33h-3.2v6.92c0,1.46.57,2,1.64,2a4.53,4.53,0,0,0,2.11-.62v1.38a5.3,5.3,0,0,1-2.45.57c-1.64,0-2.86-.86-2.86-3.2V50.71H149Z"/>
      <path class="cls-3" d="M158.12,58.31a4.63,4.63,0,0,0,3.2,1.35c1.43,0,2.34-.55,2.34-1.82s-1-1.72-2.79-2.32c-2-.68-2.86-1.51-2.86-3.33,0-2,1.51-3.07,3.57-3.07a5.3,5.3,0,0,1,3.1.86v1.69a4.6,4.6,0,0,0-3.1-1.22c-1.25,0-2.06.68-2.06,1.74s.62,1.59,2.37,2.13c2,.6,3.31,1.35,3.31,3.41,0,2.24-1.74,3.25-3.88,3.25a5.49,5.49,0,0,1-3.2-.91Z"/>
    </g>
  </g>
</svg>
