<svg id="Artwork" xmlns="http://www.w3.org/2000/svg" viewBox="0 0 285.06 59.61">
  <defs>
    <style>
      .cls-1 {
        fill: none;
      }

      .cls-2 {
        fill: #003479;
      }

      .cls-3 {
        fill: #f5ac25;
      }
    </style>
  </defs>
  <title>jsn_jm_wrdmrk_color_rgb</title>
  <g id="Wordmark_with_clear_space" data-name="Wordmark with clear space">
    <g id="Wordmark">
      <rect id="Clear_Space" data-name="Clear Space" class="cls-1" width="285.06" height="59.61"/>
    </g>
  </g>
  <g>
    <path id="Janssen_Wordmark" data-name="Janssen Wordmark" class="cls-2" d="M30.35,42.51V41c1.49-.55,2.59-1.88,2.59-4.95V22.59h2.3v13.3C35.24,39.95,32.86,42.22,30.35,42.51ZM43.77,37c-3.66,0-5.36-1.6-5.36-4.16,0-3.74,3.51-4.84,7.87-5.29v-.86c0-2.17-1.31-2.8-3.11-2.8a7.88,7.88,0,0,0-3.4.89l-.55-1.36a9.29,9.29,0,0,1,4.32-1c2.62,0,4.92,1.13,4.92,4.58V36A9.89,9.89,0,0,1,43.77,37Zm2.51-8.27c-3.56.44-5.68,1.2-5.68,4.06,0,2,1.26,2.88,3.35,2.88a5.11,5.11,0,0,0,2.33-.47Zm13.82,8V26.57c0-1.31-.55-2.75-3-2.75a5.89,5.89,0,0,0-2.67.5V36.7h-2.3V23.33a11.72,11.72,0,0,1,5.15-1c3.92,0,5.08,2.17,5.08,4.19V36.7Zm8.76.21a6.27,6.27,0,0,1-3.61-1l.63-1.52a4.43,4.43,0,0,0,2.75.84,2.45,2.45,0,0,0,2.62-2.43c0-1.46-.79-2.12-2.33-2.69-2.75-1-3.3-2.49-3.3-4a3.94,3.94,0,0,1,4.21-3.87,5.89,5.89,0,0,1,3.3,1l-.6,1.39a4,4,0,0,0-2.36-.78,2.16,2.16,0,0,0-2.35,2.23c0,1.36,1,2,2.35,2.54,2.75,1,3.43,2.51,3.43,4.14C73.6,34.92,71.74,36.91,68.86,36.91Zm10.31,0a6.27,6.27,0,0,1-3.61-1l.63-1.52a4.43,4.43,0,0,0,2.75.84,2.45,2.45,0,0,0,2.62-2.43c0-1.46-.79-2.12-2.33-2.69-2.75-1-3.3-2.49-3.3-4a3.94,3.94,0,0,1,4.21-3.87,5.89,5.89,0,0,1,3.3,1l-.6,1.39a4,4,0,0,0-2.35-.78,2.16,2.16,0,0,0-2.35,2.23c0,1.36,1,2,2.35,2.54,2.75,1,3.43,2.51,3.43,4.14C83.9,34.92,82,36.91,79.17,36.91Zm9.45-6.38c.26,3.19,1.75,4.76,4.29,4.76a7,7,0,0,0,3.48-.81L97,36a8.57,8.57,0,0,1-4.27,1c-3.69,0-6.28-2.33-6.28-7.36,0-4.79,2.36-7.27,5.68-7.27s5.42,2.2,5.36,6.91ZM92,23.82c-2,0-3.56,1.65-3.5,5.47l6.75-1C95.29,25.08,94.06,23.82,92,23.82ZM108.58,36.7V26.57c0-1.31-.55-2.75-3-2.75a5.89,5.89,0,0,0-2.67.5V36.7h-2.3V23.33a11.72,11.72,0,0,1,5.15-1c3.92,0,5.08,2.17,5.08,4.19V36.7Z" transform="translate(0)"/>
    <g>
      <path class="cls-3" d="M128.31,36.73l-4.24-13.92L121.7,36.73h-1.56l2.76-15.46h2.16l4.22,13.82,4.22-13.82h2.16l2.76,15.46h-1.61l-2.37-13.92-4.24,13.92Z" transform="translate(0)"/>
      <path class="cls-3" d="M141.89,31.14v.05a4.19,4.19,0,0,0,4.22,4.42A6,6,0,0,0,150,34.34V35.9A6.65,6.65,0,0,1,146.11,37a5.56,5.56,0,0,1-5.78-5.93c0-3.41,2.34-5.93,5.39-5.93,2.86,0,4.76,1.72,4.76,4.94v1.07Zm7-1.3c-.1-2.37-1.38-3.33-3.28-3.33A3.74,3.74,0,0,0,142,29.84Zm-4-6.45,2.21-4h1.54l-2.21,4Z" transform="translate(0)"/>
      <path class="cls-3" d="M162.89,36.58a16.4,16.4,0,0,1-3.69.42c-3.93,0-6.58-2.13-6.58-5.93s2.86-5.93,6.25-5.93a5.51,5.51,0,0,1,2.47.52V19h1.56Zm-1.56-9.52a5.3,5.3,0,0,0-2.47-.52,4.32,4.32,0,0,0-4.66,4.53c0,2.89,2,4.55,5,4.55a14.3,14.3,0,0,0,2.13-.13Z" transform="translate(0)"/>
      <path class="cls-3" d="M166.41,21.85a1.18,1.18,0,0,1,1.17-1.17,1.17,1.17,0,0,1,1.17,1.17A1.18,1.18,0,0,1,167.58,23,1.2,1.2,0,0,1,166.41,21.85Zm2,14.89H166.8V25.39h1.56Z" transform="translate(0)"/>
      <path class="cls-3" d="M180.54,27.62a5.67,5.67,0,0,0-3.17-1.07A4.22,4.22,0,0,0,173,31.09a4.25,4.25,0,0,0,4.48,4.48,5.78,5.78,0,0,0,3.25-1.07v1.64a7.28,7.28,0,0,1-3.41.86,5.7,5.7,0,0,1-5.91-5.93,5.69,5.69,0,0,1,5.88-5.93,6.26,6.26,0,0,1,3.25.86Z" transform="translate(0)"/>
      <path class="cls-3" d="M189.6,28.79a2.11,2.11,0,0,0-2.39-2.21,6.79,6.79,0,0,0-3.33.91V26a7.47,7.47,0,0,1,3.51-.89c2.29,0,3.77,1,3.77,3.57v7.83a12.91,12.91,0,0,1-3.23.42c-3.07,0-5.13-1-5.13-3.36,0-2.24,2.06-3.41,5.52-3.41h1.27Zm0,2.65h-1.17c-2.34,0-4.06.63-4.06,2.13s1.56,2.06,3.64,2.06a8.87,8.87,0,0,0,1.59-.16Z" transform="translate(0)"/>
      <path class="cls-3" d="M209.32,29.13a2.38,2.38,0,0,0-2.65-2.6,8.73,8.73,0,0,0-3.33.65,4.82,4.82,0,0,1,.34,1.87v7.68h-1.56v-7.6a2.36,2.36,0,0,0-2.68-2.6,8.59,8.59,0,0,0-3,.52v9.68h-1.56V26.11a12.37,12.37,0,0,1,4.55-1,4.57,4.57,0,0,1,3,.89,12,12,0,0,1,4.19-.89c2.73,0,4.22,1.12,4.22,4v7.65h-1.56Z" transform="translate(0)"/>
      <path class="cls-3" d="M215.36,31.14v.05a4.19,4.19,0,0,0,4.22,4.42,6,6,0,0,0,3.88-1.28V35.9A6.66,6.66,0,0,1,219.58,37a5.56,5.56,0,0,1-5.78-5.93c0-3.41,2.34-5.93,5.39-5.93,2.86,0,4.76,1.72,4.76,4.94v1.07Zm7-1.3c-.1-2.37-1.38-3.33-3.28-3.33a3.74,3.74,0,0,0-3.64,3.33Z" transform="translate(0)"/>
      <path class="cls-3" d="M226.94,26a14.48,14.48,0,0,1,4.76-.86c2.86,0,4.61,1.12,4.61,4v7.65h-1.56V29.39c0-2.32-1.64-2.81-3.18-2.81a12.32,12.32,0,0,0-3.07.42v9.73h-1.56Z" transform="translate(0)"/>
      <path class="cls-3" d="M238.52,25.39h1.74V22.63h1.56v2.76H245v1.33h-3.2v6.92c0,1.46.57,2,1.64,2a4.53,4.53,0,0,0,2.11-.62v1.38a5.3,5.3,0,0,1-2.45.57c-1.64,0-2.86-.86-2.86-3.2V26.71h-1.74Z" transform="translate(0)"/>
      <path class="cls-3" d="M247.63,34.31a4.63,4.63,0,0,0,3.2,1.35c1.43,0,2.34-.55,2.34-1.82s-1-1.72-2.79-2.32c-2-.68-2.86-1.51-2.86-3.33,0-2,1.51-3.07,3.57-3.07a5.3,5.3,0,0,1,3.1.86v1.69a4.6,4.6,0,0,0-3.1-1.22c-1.25,0-2.06.68-2.06,1.74s.62,1.59,2.37,2.13c2,.6,3.31,1.35,3.31,3.41C254.71,36,253,37,250.83,37a5.49,5.49,0,0,1-3.2-.91Z" transform="translate(0)"/>
    </g>
  </g>
</svg>
